<?xml version="1.0" encoding="utf-8"?>
<!-- Generator: Adobe Illustrator 23.0.1, SVG Export Plug-In . SVG Version: 6.00 Build 0)  -->
<svg version="1.1" id="Слой_1" xmlns="http://www.w3.org/2000/svg" xmlns:xlink="http://www.w3.org/1999/xlink" x="0px" y="0px"
	 viewBox="0 0 354.4 362.97" style="enable-background:new 0 0 354.4 362.97;" xml:space="preserve">
<g>
	<path d="M153.55,305.83v-87.47c0-3.01-2.44-5.46-5.46-5.46h-36.38c-3.01,0-5.46,2.44-5.46,5.46c0,3.02,2.44,5.46,5.46,5.46h30.93
		v82.01c-10.42,2.47-18.19,11.85-18.19,23.01c0,13.04,10.61,23.65,23.65,23.65c13.04,0,23.65-10.61,23.65-23.65
		C171.74,317.68,163.97,308.3,153.55,305.83L153.55,305.83z M148.09,341.57c-7.02,0-12.73-5.71-12.73-12.73
		c0-7.02,5.71-12.73,12.73-12.73s12.73,5.71,12.73,12.73C160.83,335.86,155.11,341.57,148.09,341.57L148.09,341.57z M148.09,341.57"
		/>
	<path d="M211.76,305.83v-87.47c0-3.01-2.44-5.46-5.46-5.46h-36.38c-3.01,0-5.46,2.44-5.46,5.46c0,3.02,2.44,5.46,5.46,5.46h30.93
		v82.01c-10.42,2.47-18.19,11.85-18.19,23.01c0,13.04,10.61,23.65,23.65,23.65c13.04,0,23.65-10.61,23.65-23.65
		C229.95,317.68,222.18,308.3,211.76,305.83L211.76,305.83z M206.31,341.57c-7.02,0-12.73-5.71-12.73-12.73
		c0-7.02,5.71-12.73,12.73-12.73s12.73,5.71,12.73,12.73C219.04,335.86,213.33,341.57,206.31,341.57L206.31,341.57z M206.31,341.57"
		/>
	<path d="M304.54,268.8c-11.16,0-20.54,7.77-23.01,18.19h-11.56v-68.64c0-3.01-2.44-5.46-5.46-5.46h-36.38
		c-3.01,0-5.46,2.44-5.46,5.46c0,3.02,2.44,5.46,5.46,5.46h30.93v68.64c0,3.01,2.44,5.46,5.46,5.46h17.02
		c2.47,10.42,11.85,18.19,23.01,18.19c13.04,0,23.65-10.61,23.65-23.65C328.19,279.41,317.58,268.8,304.54,268.8L304.54,268.8z
		 M304.54,305.19c-7.02,0-12.73-5.71-12.73-12.73s5.71-12.73,12.73-12.73s12.73,5.71,12.73,12.73S311.56,305.19,304.54,305.19
		L304.54,305.19z M304.54,305.19"/>
	<path d="M335.2,128.04c-7.35-9.13-17.34-15.9-28.46-19.35c-1.25-25.83-11.97-49.94-30.45-68.26
		c-19.47-19.31-45.31-29.95-72.74-29.95c-36.02,0-69.35,18.78-88.09,49.33c-4.56-1.44-9.3-2.16-14.14-2.16
		c-22.3,0-41.46,15.74-46.09,37.19C26.6,102.26,6.2,128.36,6.2,158.27c0,36.14,29.4,65.54,65.54,65.54h12.68V287H72.86
		c-2.47-10.42-11.85-18.19-23.01-18.19c-13.04,0-23.65,10.61-23.65,23.65c0,13.04,10.61,23.65,23.65,23.65
		c11.16,0,20.54-7.77,23.01-18.19h17.02c3.01,0,5.46-2.44,5.46-5.46v-74.09c0-3.01-2.44-5.46-5.46-5.46H71.74
		c-30.12,0-54.63-24.5-54.63-54.63c0-25.99,18.48-48.53,43.94-53.58c2.3-0.45,4.05-2.32,4.35-4.64
		c2.35-17.95,17.79-31.49,35.92-31.49c4.98,0,9.82,1,14.38,2.97c2.58,1.12,5.58,0.09,6.94-2.37c16.29-29.46,47.29-47.76,80.92-47.76
		c50.49,0,91.94,41.07,92.39,91.55c0.02,2.52,1.77,4.7,4.22,5.27c21.85,5.06,37.11,24.27,37.11,46.72
		c0,26.45-21.52,47.97-47.97,47.97h-2.97c-3.01,0-5.46,2.44-5.46,5.46c0,3.02,2.44,5.46,5.46,5.46h2.97
		c32.47,0,58.88-26.41,58.88-58.88C348.2,151.55,343.58,138.45,335.2,128.04L335.2,128.04z M49.86,305.19
		c-7.02,0-12.73-5.71-12.73-12.73s5.71-12.73,12.73-12.73c7.02,0,12.73,5.71,12.73,12.73S56.88,305.19,49.86,305.19L49.86,305.19z
		 M49.86,305.19"/>
	<path d="M252.35,73.61c1.08,1.3,2.64,1.98,4.21,1.98c1.23,0,2.46-0.41,3.47-1.25c2.32-1.92,2.65-5.36,0.73-7.68
		c-14.21-17.2-35.06-27.07-57.21-27.07c-3.01,0-5.46,2.44-5.46,5.46c0,3.01,2.44,5.46,5.46,5.46
		C222.44,50.51,240.22,58.93,252.35,73.61L252.35,73.61z M252.35,73.61"/>
</g>
</svg>
