<?xml version="1.0" encoding="utf-8"?>
<!-- Generator: Adobe Illustrator 23.0.1, SVG Export Plug-In . SVG Version: 6.00 Build 0)  -->
<svg version="1.1" id="Слой_1" xmlns="http://www.w3.org/2000/svg" xmlns:xlink="http://www.w3.org/1999/xlink" x="0px" y="0px"
	 viewBox="0 0 354.4 362.97" style="enable-background:new 0 0 354.4 362.97;" xml:space="preserve">
<path d="M339.96,114.75l-24.91-32.53c-9.24-12.07-23.83-19.27-39.02-19.27H78.38c-15.2,0-29.78,7.2-39.02,19.27l-24.91,32.53
	c-14.02,18.31-11.47,44.61,5.8,59.89l75.15,66.48c2.08,1.84,5.26,1.65,7.11-0.43c1.84-2.08,1.65-5.27-0.43-7.11L26.91,167.1
	c-4.79-4.24-8.1-9.57-9.89-15.33h96.32l47.07,133.07c-1.09-0.73-42.09-36.88-42.09-36.88c-2.08-1.84-5.26-1.65-7.11,0.43
	c-1.84,2.08-1.65,5.26,0.43,7.11l38.93,34.44c7.59,6.71,17.1,10.07,26.62,10.07c9.52,0,19.03-3.36,26.62-10.07l130.34-115.31
	C351.43,159.36,353.97,133.06,339.96,114.75L339.96,114.75z M307.05,88.35l24.91,32.53c4.73,6.17,7.01,13.52,6.98,20.82H247.7
	l48.33-63.11C300.25,81.1,304.02,84.38,307.05,88.35L307.05,88.35z M286.49,74.49l-48.99,63.97l-18.13-23.67
	c-1.69-2.21-4.85-2.62-7.06-0.94c-2.21,1.69-2.63,4.85-0.94,7.06l15.92,20.79H127.1l50.1-65.43l21.53,28.11
	c1.69,2.21,4.85,2.63,7.06,0.94c2.21-1.69,2.63-4.85,0.94-7.06L187.4,73.03h88.62C279.58,73.03,283.1,73.54,286.49,74.49
	L286.49,74.49z M167,73.03l-50.1,65.43L67.91,74.49c3.38-0.95,6.9-1.46,10.47-1.46H167z M15.46,141.7
	c-0.03-7.3,2.25-14.65,6.98-20.82l24.91-32.53c3.04-3.96,6.8-7.25,11.02-9.76l48.33,63.11H15.46z M172.78,289.62l-48.76-137.85
	h106.36l-48.76,137.85C178.69,290.05,175.71,290.05,172.78,289.62L172.78,289.62z M327.48,167.1c0,0-132.41,117.01-133.5,117.74
	l47.07-133.07h96.32C335.59,157.52,332.27,162.86,327.48,167.1L327.48,167.1z M327.48,167.1"/>
</svg>
