<?xml version="1.0" encoding="utf-8"?>
<!-- Generator: Adobe Illustrator 23.0.1, SVG Export Plug-In . SVG Version: 6.00 Build 0)  -->
<svg version="1.1" id="Слой_1" xmlns="http://www.w3.org/2000/svg" xmlns:xlink="http://www.w3.org/1999/xlink" x="0px" y="0px"
	 viewBox="0 0 354.4 362.97" style="enable-background:new 0 0 354.4 362.97;" xml:space="preserve">
<style type="text/css">
	.st0{stroke:#000000;stroke-width:4;stroke-miterlimit:10;}
</style>
<g>
	<path d="M314.41,299.09H39.99c-21.61,0-39.2-17.59-39.2-39.21c0-3.09,2.51-5.6,5.6-5.6h341.62c3.1,0,5.6,2.5,5.6,5.6
		C353.61,281.5,336.02,299.09,314.41,299.09L314.41,299.09z M12.55,265.49c2.6,12.76,13.92,22.4,27.44,22.4h274.42
		c13.53,0,24.83-9.64,27.44-22.4H12.55z M12.55,265.49"/>
	<path d="M320.01,265.49H34.39c-3.1,0-5.6-2.51-5.6-5.6V69.48c0-3.09,2.51-5.6,5.6-5.6h78.4c3.1,0,5.6,2.51,5.6,5.6
		c0,3.1-2.5,5.6-5.6,5.6H39.99v179.21h274.42V75.08H236c-3.09,0-5.6-2.51-5.6-5.6c0-3.09,2.5-5.6,5.6-5.6h84.01
		c3.1,0,5.6,2.51,5.6,5.6v190.41C325.61,262.98,323.1,265.49,320.01,265.49L320.01,265.49z M320.01,265.49"/>
	<path class="st0" d="M247.84,132.43c-39.12-39.14-102.81-39.14-141.95,0l-26.14,26.14l26.8,26.8
		c19.56,19.56,45.26,29.35,70.96,29.35c25.72,0,51.42-9.79,70.98-29.35l26.13-26.14L247.84,132.43z M243.84,180.7
		c-36.57,36.57-96.07,36.57-132.64,0l-22.13-22.13l21.49-21.48c36.57-36.56,96.07-36.56,132.64,0l22.13,22.13L243.84,180.7z
		 M243.84,180.7"/>
	<path class="st0" d="M173.82,132.46c-12.71,0-23.05,10.34-23.05,23.05c0,1.81,1.48,3.28,3.3,3.28c1.81,0,3.29-1.46,3.29-3.28
		c0-9.08,7.38-16.46,16.46-16.46c1.82,0,3.28-1.48,3.28-3.3C177.1,133.94,175.64,132.46,173.82,132.46L173.82,132.46z
		 M173.82,132.46"/>
	<path class="st0" d="M177.1,116c-23.59,0-42.79,19.19-42.79,42.79c0,23.59,19.19,42.8,42.79,42.8c23.6,0,42.81-19.21,42.81-42.8
		C219.91,135.2,200.72,116,177.1,116L177.1,116z M177.1,195c-19.96,0-36.2-16.23-36.2-36.21c0-19.97,16.24-36.2,36.2-36.2
		c19.97,0,36.21,16.23,36.21,36.2C213.32,178.77,197.08,195,177.1,195L177.1,195z M177.1,195"/>
	<rect x="67.66" y="63.88" width="198.16" height="11.2"/>
</g>
</svg>
