<?xml version="1.0" encoding="utf-8"?>
<!-- Generator: Adobe Illustrator 23.0.1, SVG Export Plug-In . SVG Version: 6.00 Build 0)  -->
<svg version="1.1" id="Слой_1" xmlns="http://www.w3.org/2000/svg" xmlns:xlink="http://www.w3.org/1999/xlink" x="0px" y="0px"
	 viewBox="0 0 232.1 297.4" style="enable-background:new 0 0 232.1 297.4;" xml:space="preserve">
<style type="text/css">
	.st0{fill:url(#SVGID_1_);}
	.st1{fill:none;stroke:url(#SVGID_2_);stroke-miterlimit:10;}
	.st2{fill:none;stroke:url(#SVGID_3_);stroke-miterlimit:10;}
	.st3{fill:none;stroke:url(#SVGID_4_);stroke-miterlimit:10;}
	.st4{fill:none;stroke:url(#SVGID_5_);stroke-miterlimit:10;}
	.st5{fill:none;stroke:url(#SVGID_6_);stroke-miterlimit:10;}
	.st6{fill:none;stroke:url(#SVGID_7_);stroke-miterlimit:10;}
	.st7{fill:none;stroke:url(#SVGID_8_);stroke-miterlimit:10;}
	.st8{fill:none;stroke:url(#SVGID_9_);stroke-miterlimit:10;}
	.st9{fill:none;stroke:url(#SVGID_10_);stroke-miterlimit:10;}
	.st10{fill:none;stroke:url(#SVGID_11_);stroke-miterlimit:10;}
	.st11{fill:none;stroke:url(#SVGID_12_);stroke-miterlimit:10;}
	.st12{fill:none;stroke:url(#SVGID_13_);stroke-miterlimit:10;}
	.st13{fill:none;stroke:url(#SVGID_14_);stroke-miterlimit:10;}
	.st14{fill:none;stroke:url(#SVGID_15_);stroke-miterlimit:10;}
	.st15{fill:none;stroke:url(#SVGID_16_);stroke-miterlimit:10;}
	.st16{fill:none;stroke:url(#SVGID_17_);stroke-miterlimit:10;}
	.st17{fill:none;stroke:url(#SVGID_18_);stroke-miterlimit:10;}
	.st18{fill:none;stroke:url(#SVGID_19_);stroke-miterlimit:10;}
	.st19{fill:none;stroke:url(#SVGID_20_);stroke-miterlimit:10;}
	.st20{fill:none;stroke:url(#SVGID_21_);stroke-miterlimit:10;}
	.st21{fill:none;stroke:url(#SVGID_22_);stroke-miterlimit:10;}
	.st22{fill:none;stroke:url(#SVGID_23_);stroke-miterlimit:10;}
	.st23{fill:none;stroke:url(#SVGID_24_);stroke-miterlimit:10;}
	.st24{fill:none;stroke:url(#SVGID_25_);stroke-miterlimit:10;}
	.st25{fill:none;stroke:url(#SVGID_26_);stroke-miterlimit:10;}
	.st26{fill:none;stroke:url(#SVGID_27_);stroke-miterlimit:10;}
	.st27{fill:none;stroke:url(#SVGID_28_);stroke-miterlimit:10;}
	.st28{fill:none;stroke:url(#SVGID_29_);stroke-miterlimit:10;}
	.st29{fill:none;stroke:url(#SVGID_30_);stroke-miterlimit:10;}
	.st30{fill:none;stroke:url(#SVGID_31_);stroke-miterlimit:10;}
	.st31{opacity:0.5;}
	.st32{fill:none;stroke:#FFFFFF;stroke-miterlimit:10;}
	.st33{fill:url(#SVGID_32_);}
	.st34{fill:url(#SVGID_33_);}
	.st35{fill:url(#SVGID_34_);}
	.st36{fill:url(#SVGID_35_);}
	.st37{fill:url(#SVGID_36_);}
	.st38{fill:url(#SVGID_37_);}
	.st39{fill:url(#SVGID_38_);}
	.st40{fill:url(#SVGID_39_);}
	.st41{fill:url(#SVGID_40_);}
	.st42{fill:url(#SVGID_41_);}
	.st43{fill:url(#SVGID_42_);}
	.st44{fill:url(#SVGID_43_);}
	.st45{fill:url(#SVGID_44_);}
	.st46{fill:url(#SVGID_45_);}
	.st47{fill:url(#SVGID_46_);}
	.st48{fill:url(#SVGID_47_);}
	.st49{fill:url(#SVGID_48_);}
	.st50{fill:url(#SVGID_49_);}
	.st51{fill:url(#SVGID_50_);}
	.st52{fill:url(#SVGID_51_);}
	.st53{fill:url(#SVGID_52_);}
	.st54{fill:url(#SVGID_53_);}
	.st55{fill:url(#SVGID_54_);}
	.st56{fill:url(#SVGID_55_);}
	.st57{fill:url(#SVGID_56_);}
	.st58{fill:url(#SVGID_57_);}
	.st59{fill:url(#SVGID_58_);}
	.st60{fill:url(#SVGID_59_);}
	.st61{fill:url(#SVGID_60_);}
	.st62{fill:url(#SVGID_61_);}
	.st63{fill:url(#SVGID_62_);}
	.st64{fill:url(#SVGID_63_);}
	.st65{fill:url(#SVGID_64_);}
	.st66{fill:url(#SVGID_65_);}
	.st67{fill:url(#SVGID_66_);}
</style>
<g>
	<g id="XMLID_1_">
		<g>
			<linearGradient id="SVGID_1_" gradientUnits="userSpaceOnUse" x1="0" y1="148.6854" x2="119.7595" y2="148.6854">
				<stop  offset="0.1417" style="stop-color:#28668C"/>
				<stop  offset="1" style="stop-color:#70CCE5"/>
			</linearGradient>
			<path class="st0" d="M70.6,24c0.4-1.2,0.8-2.4,1.2-3.6c7.6-21.8,46.9-28.3,46-8.7c-0.2,5.2-1.4,8.1-3.4,9.8c0,0,8.1,6.9,1,16.7
				c6.3,9.5,5.8,37.5-2.9,41.2c0,0,9.5,19.3,5.6,29.8c-3.4,9-2.3,23.1-10.5,29.9c0.5,0.2,11.9,4.5,7.3,31.8
				c-4.7,27.9,1.1,38.5,1.1,38.5s8.9,15.6-3.2,20.3c0,0,12.7,27.6-3.7,31.5c2.5,2.4,8.8,9.6,7.3,20c-1.8,12.9-9.9,20.6-28,13.5
				c-18.2-7.1-14.4-14.7-28.2-20c-13.8-5.3-27.8-7.7-31.4-25.2c-18.4-8.9-20.2-32.3-23.9-47.2c-4.3-17.3-10.2-59.4,4-68
				c-0.7-8.8,1.9-13.1,5.6-15c-0.6-2.2-9.5-36.2,14.1-40.6c2.2-0.4,4.1-1,5.9-1.7c-21.1-6.2,18.8-55,27.1-58.2
				C69.9,15.7,70.6,24,70.6,24z"/>
		</g>
	</g>
</g>
<g>
	<linearGradient id="SVGID_2_" gradientUnits="userSpaceOnUse" x1="125.1628" y1="81.2701" x2="185.7079" y2="81.2701">
		<stop  offset="0.1417" style="stop-color:#28668C"/>
		<stop  offset="1" style="stop-color:#70CCE5"/>
	</linearGradient>
	<polyline class="st1" points="157.8,62 157.8,44.5 146.7,32.5 133.6,32.5 125.7,24 125.7,14.8 133,6.9 153,6.9 173.5,28.9 
		173.5,64.9 164,75.1 185,97.7 171,112.8 171,144.6 160.8,155.6 143.8,155.6 	"/>
	<linearGradient id="SVGID_3_" gradientUnits="userSpaceOnUse" x1="146.6569" y1="32.4775" x2="163.2134" y2="32.4775">
		<stop  offset="0.1417" style="stop-color:#28668C"/>
		<stop  offset="1" style="stop-color:#70CCE5"/>
	</linearGradient>
	<line class="st2" x1="146.7" y1="32.5" x2="163.2" y2="32.5"/>
	<linearGradient id="SVGID_4_" gradientUnits="userSpaceOnUse" x1="138.0969" y1="25.5259" x2="154.2947" y2="25.5259">
		<stop  offset="0.1417" style="stop-color:#28668C"/>
		<stop  offset="1" style="stop-color:#70CCE5"/>
	</linearGradient>
	<polyline class="st3" points="153.8,32.5 153.8,28.2 145.3,19.1 138.1,19.1 	"/>
	<linearGradient id="SVGID_5_" gradientUnits="userSpaceOnUse" x1="123.0256" y1="68.4065" x2="170.6699" y2="68.4065">
		<stop  offset="0.1417" style="stop-color:#28668C"/>
		<stop  offset="1" style="stop-color:#70CCE5"/>
	</linearGradient>
	<polyline class="st4" points="170.7,96.3 158.3,96.3 148,85.3 132.9,85.3 123.5,75.2 123.5,47.9 130.4,40.5 141.2,40.5 148.9,48.7 
		148.9,72 160.5,84.5 	"/>
	<linearGradient id="SVGID_6_" gradientUnits="userSpaceOnUse" x1="133.6647" y1="62.816" x2="148.8566" y2="62.816">
		<stop  offset="0.1417" style="stop-color:#28668C"/>
		<stop  offset="1" style="stop-color:#70CCE5"/>
	</linearGradient>
	<polyline class="st5" points="148.9,59.8 139.8,59.8 134,66 	"/>
	<linearGradient id="SVGID_7_" gradientUnits="userSpaceOnUse" x1="173.5161" y1="60.701" x2="204.9192" y2="60.701">
		<stop  offset="0.1417" style="stop-color:#28668C"/>
		<stop  offset="1" style="stop-color:#70CCE5"/>
	</linearGradient>
	<polyline class="st6" points="173.5,37.9 185,37.9 204.4,59.3 204.4,84 	"/>
	<linearGradient id="SVGID_8_" gradientUnits="userSpaceOnUse" x1="141.0402" y1="199.4925" x2="232.1217" y2="199.4925">
		<stop  offset="0.1417" style="stop-color:#28668C"/>
		<stop  offset="1" style="stop-color:#70CCE5"/>
	</linearGradient>
	<polyline class="st7" points="222.9,133.9 231.6,143.3 231.6,192.2 222.7,201.8 222.7,230.4 204.2,250.3 176.4,250.3 162.8,264.9 
		141,264.9 	"/>
	<linearGradient id="SVGID_9_" gradientUnits="userSpaceOnUse" x1="121.0533" y1="269.8363" x2="198.68" y2="269.8363">
		<stop  offset="0.1417" style="stop-color:#28668C"/>
		<stop  offset="1" style="stop-color:#70CCE5"/>
	</linearGradient>
	<polyline class="st8" points="198.3,250.3 178.3,271.9 169.3,271.9 153.2,289.2 132.5,289.2 121.6,277.4 121.6,269.2 131.8,258.1 	
		"/>
	<linearGradient id="SVGID_10_" gradientUnits="userSpaceOnUse" x1="136.7233" y1="277.2937" x2="169.2986" y2="277.2937">
		<stop  offset="0.1417" style="stop-color:#28668C"/>
		<stop  offset="1" style="stop-color:#70CCE5"/>
	</linearGradient>
	<polyline class="st9" points="169.3,271.9 156.2,271.9 146.1,282.7 136.7,282.7 	"/>
	<linearGradient id="SVGID_11_" gradientUnits="userSpaceOnUse" x1="135.4498" y1="274.8399" x2="153.011" y2="274.8399">
		<stop  offset="0.1417" style="stop-color:#28668C"/>
		<stop  offset="1" style="stop-color:#70CCE5"/>
	</linearGradient>
	<line class="st10" x1="153" y1="274.8" x2="135.4" y2="274.8"/>
	<linearGradient id="SVGID_12_" gradientUnits="userSpaceOnUse" x1="159.9098" y1="122.7417" x2="208.5905" y2="122.7417">
		<stop  offset="0.1417" style="stop-color:#28668C"/>
		<stop  offset="1" style="stop-color:#70CCE5"/>
	</linearGradient>
	<polyline class="st11" points="181.5,80 194.4,94 208.1,94 208.1,114 160.3,165.4 	"/>
	<linearGradient id="SVGID_13_" gradientUnits="userSpaceOnUse" x1="180.3456" y1="113.4268" x2="208.0905" y2="113.4268">
		<stop  offset="0.1417" style="stop-color:#28668C"/>
		<stop  offset="1" style="stop-color:#70CCE5"/>
	</linearGradient>
	<polyline class="st12" points="208.1,105.9 194.8,105.9 180.7,121.1 	"/>
	<linearGradient id="SVGID_14_" gradientUnits="userSpaceOnUse" x1="124.1965" y1="114.5382" x2="164.7162" y2="114.5382">
		<stop  offset="0.1417" style="stop-color:#28668C"/>
		<stop  offset="1" style="stop-color:#70CCE5"/>
	</linearGradient>
	<polyline class="st13" points="132.9,85.3 124.7,94.1 124.7,108.1 124.7,128.3 139,143.6 157.9,143.6 164.2,136.9 164.2,107.5 	"/>
	<linearGradient id="SVGID_15_" gradientUnits="userSpaceOnUse" x1="153.7935" y1="117.2262" x2="164.5822" y2="117.2262">
		<stop  offset="0.1417" style="stop-color:#28668C"/>
		<stop  offset="1" style="stop-color:#70CCE5"/>
	</linearGradient>
	<polyline class="st14" points="164.2,130.7 154.3,120 154.3,103.5 	"/>
	<linearGradient id="SVGID_16_" gradientUnits="userSpaceOnUse" x1="124.3304" y1="110.0267" x2="139.1979" y2="110.0267">
		<stop  offset="0.1417" style="stop-color:#28668C"/>
		<stop  offset="1" style="stop-color:#70CCE5"/>
	</linearGradient>
	<polyline class="st15" points="124.7,94.1 138.7,109.1 138.7,126.3 	"/>
	<linearGradient id="SVGID_17_" gradientUnits="userSpaceOnUse" x1="136.2758" y1="164.7415" x2="191.9696" y2="164.7415">
		<stop  offset="0.1417" style="stop-color:#28668C"/>
		<stop  offset="1" style="stop-color:#70CCE5"/>
	</linearGradient>
	<polyline class="st16" points="191.5,150.1 191.5,168.8 182.1,178.9 157.3,178.9 147.5,168.4 136.3,168.4 	"/>
	<linearGradient id="SVGID_18_" gradientUnits="userSpaceOnUse" x1="123.8536" y1="184.0864" x2="160.2791" y2="184.0864">
		<stop  offset="0.1417" style="stop-color:#28668C"/>
		<stop  offset="1" style="stop-color:#70CCE5"/>
	</linearGradient>
	<polyline class="st17" points="134.2,138.5 124.4,149.1 124.4,218.2 134.9,229.5 144.5,229.5 159.8,213 159.8,196.6 	"/>
	<linearGradient id="SVGID_19_" gradientUnits="userSpaceOnUse" x1="119.4106" y1="234.2581" x2="170.5691" y2="234.2581">
		<stop  offset="0.1417" style="stop-color:#28668C"/>
		<stop  offset="1" style="stop-color:#70CCE5"/>
	</linearGradient>
	<polyline class="st18" points="170.2,210.8 145.4,237.4 145.4,251.3 139.6,257.6 128.3,257.6 119.9,248.6 119.9,231 128.4,222.5 	
		"/>
	<linearGradient id="SVGID_20_" gradientUnits="userSpaceOnUse" x1="128.2866" y1="239.4739" x2="135.2345" y2="239.4739">
		<stop  offset="0.1417" style="stop-color:#28668C"/>
		<stop  offset="1" style="stop-color:#70CCE5"/>
	</linearGradient>
	<polyline class="st19" points="134.9,229.5 128.8,236 128.8,249.8 	"/>
	<linearGradient id="SVGID_21_" gradientUnits="userSpaceOnUse" x1="163.413" y1="169.775" x2="210.4145" y2="169.775">
		<stop  offset="0.1417" style="stop-color:#28668C"/>
		<stop  offset="1" style="stop-color:#70CCE5"/>
	</linearGradient>
	<polyline class="st20" points="209.9,144.6 209.9,168.8 186.1,194.5 171.5,194.5 163.8,186.2 	"/>
	<linearGradient id="SVGID_22_" gradientUnits="userSpaceOnUse" x1="158.7559" y1="216.2261" x2="186.555" y2="216.2261">
		<stop  offset="0.1417" style="stop-color:#28668C"/>
		<stop  offset="1" style="stop-color:#70CCE5"/>
	</linearGradient>
	<polyline class="st21" points="186.1,194.5 186.1,208.7 159.1,237.6 	"/>
	<linearGradient id="SVGID_23_" gradientUnits="userSpaceOnUse" x1="158.0867" y1="239.1706" x2="174.2512" y2="239.1706">
		<stop  offset="0.1417" style="stop-color:#28668C"/>
		<stop  offset="1" style="stop-color:#70CCE5"/>
	</linearGradient>
	<polyline class="st22" points="173.8,221.9 173.8,239.6 158.5,256.1 	"/>
	<linearGradient id="SVGID_24_" gradientUnits="userSpaceOnUse" x1="184.715" y1="213.0937" x2="222.6976" y2="213.0937">
		<stop  offset="0.1417" style="stop-color:#28668C"/>
		<stop  offset="1" style="stop-color:#70CCE5"/>
	</linearGradient>
	<polyline class="st23" points="222.7,201.8 206.2,201.8 185.1,224.5 	"/>
	<linearGradient id="SVGID_25_" gradientUnits="userSpaceOnUse" x1="196.0081" y1="175.1176" x2="222.1879" y2="175.1176">
		<stop  offset="0.1417" style="stop-color:#28668C"/>
		<stop  offset="1" style="stop-color:#70CCE5"/>
	</linearGradient>
	<polyline class="st24" points="221.7,150.1 221.7,172.6 196.4,199.8 	"/>
	<linearGradient id="SVGID_26_" gradientUnits="userSpaceOnUse" x1="212.2956" y1="188.7391" x2="220.2124" y2="188.7391">
		<stop  offset="0.1417" style="stop-color:#28668C"/>
		<stop  offset="1" style="stop-color:#70CCE5"/>
	</linearGradient>
	<polyline class="st25" points="212.7,182.3 219.5,189.7 214.5,195.2 	"/>
	<linearGradient id="SVGID_27_" gradientUnits="userSpaceOnUse" x1="131.8275" y1="185.5893" x2="157.6927" y2="185.5893">
		<stop  offset="0.1417" style="stop-color:#28668C"/>
		<stop  offset="1" style="stop-color:#70CCE5"/>
	</linearGradient>
	<polyline class="st26" points="157.3,178.9 145.1,192.1 131.8,192.1 	"/>
	<linearGradient id="SVGID_28_" gradientUnits="userSpaceOnUse" x1="135.3295" y1="204.6516" x2="145.5678" y2="204.6516">
		<stop  offset="0.1417" style="stop-color:#28668C"/>
		<stop  offset="1" style="stop-color:#70CCE5"/>
	</linearGradient>
	<polyline class="st27" points="145.1,192.1 145.1,206.8 135.7,216.9 	"/>
	<linearGradient id="SVGID_29_" gradientUnits="userSpaceOnUse" x1="194.7956" y1="226.501" x2="207.4114" y2="226.501">
		<stop  offset="0.1417" style="stop-color:#28668C"/>
		<stop  offset="1" style="stop-color:#70CCE5"/>
	</linearGradient>
	<polyline class="st28" points="195.2,214.1 206.7,226.5 195.2,238.9 	"/>
	<linearGradient id="SVGID_30_" gradientUnits="userSpaceOnUse" x1="169.0665" y1="160.7586" x2="179.4014" y2="160.7586">
		<stop  offset="0.1417" style="stop-color:#28668C"/>
		<stop  offset="1" style="stop-color:#70CCE5"/>
	</linearGradient>
	<line class="st29" x1="169.4" y1="155.6" x2="179" y2="165.9"/>
	<linearGradient id="SVGID_31_" gradientUnits="userSpaceOnUse" x1="123.3217" y1="35.7743" x2="129.4266" y2="35.7743">
		<stop  offset="0.1417" style="stop-color:#28668C"/>
		<stop  offset="1" style="stop-color:#70CCE5"/>
	</linearGradient>
	<polyline class="st30" points="129.1,27.7 123.8,32.9 123.8,40.5 127.3,43.9 	"/>
</g>
<g class="st31">
	<polyline class="st32" points="77,70.7 77,54.1 87.6,42.7 100,42.7 107.5,34.6 107.5,26 100.6,18.5 81.6,18.5 62.1,39.3 62.1,73.4 
		71.2,83.1 51.2,104.6 64.5,118.9 64.5,149 74.2,159.5 90.3,159.5 	"/>
	<line class="st32" x1="87.6" y1="42.7" x2="71.9" y2="42.7"/>
	<polyline class="st32" points="80.8,42.7 80.8,38.6 88.9,30 95.7,30 	"/>
	<polyline class="st32" points="64.8,103.3 76.6,103.3 86.4,92.8 100.7,92.8 109.6,83.2 109.6,57.3 103,50.3 92.8,50.3 85.5,58 
		85.5,80.2 74.5,92.1 	"/>
	<polyline class="st32" points="85.5,68.6 94.1,68.6 99.6,74.5 	"/>
	<polyline class="st32" points="62.1,47.8 51.2,47.8 32.8,68.1 32.8,91.6 	"/>
	<polyline class="st32" points="15.3,138.9 7,147.8 7,194.2 15.5,203.3 15.5,230.4 33,249.3 59.4,249.3 72.3,263.2 92.9,263.2 	"/>
	<polyline class="st32" points="38.6,249.3 57.6,269.8 66.1,269.8 81.5,286.2 101,286.2 111.4,275 111.4,267.2 101.7,256.7 	"/>
	<polyline class="st32" points="66.1,269.8 78.6,269.8 88.2,280.1 97,280.1 	"/>
	<line class="st32" x1="81.6" y1="272.6" x2="98.2" y2="272.6"/>
	<polyline class="st32" points="54.6,87.8 42.3,101 29.3,101 29.3,120.1 74.7,168.8 	"/>
	<polyline class="st32" points="29.3,112.4 42,112.4 55.3,126.7 	"/>
	<polyline class="st32" points="100.7,92.8 108.4,101.1 108.4,114.5 108.4,133.6 94.9,148.1 76.9,148.1 71,141.7 71,113.9 	"/>
	<polyline class="st32" points="71,135.8 80.4,125.7 80.4,110 	"/>
	<polyline class="st32" points="108.4,101.1 95.2,115.4 95.2,131.7 	"/>
	<polyline class="st32" points="45.1,154.2 45.1,172 54,181.6 77.5,181.6 86.8,171.6 97.5,171.6 	"/>
	<polyline class="st32" points="99.4,143.3 108.8,153.3 108.8,218.8 98.8,229.6 89.7,229.6 75.2,213.9 75.2,198.4 	"/>
	<polyline class="st32" points="65.3,211.8 88.8,237.1 88.8,250.2 94.3,256.2 105,256.2 113,247.7 113,231 104.9,222.9 	"/>
	<polyline class="st32" points="98.8,229.6 104.6,235.8 104.6,248.8 	"/>
	<polyline class="st32" points="27.6,149 27.6,172 50.2,196.4 64.1,196.4 71.4,188.5 	"/>
	<polyline class="st32" points="50.2,196.4 50.2,209.8 75.8,237.3 	"/>
	<polyline class="st32" points="61.9,222.4 61.9,239.2 76.4,254.8 	"/>
	<polyline class="st32" points="15.5,203.3 31.1,203.3 51.2,224.8 	"/>
	<polyline class="st32" points="16.4,154.2 16.4,175.6 40.5,201.4 	"/>
	<polyline class="st32" points="25,184.8 18.5,191.8 23.3,197 	"/>
	<polyline class="st32" points="77.5,181.6 89.1,194.1 101.7,194.1 	"/>
	<polyline class="st32" points="89.1,194.1 89.1,208 98,217.6 	"/>
	<polyline class="st32" points="41.5,215 30.6,226.7 41.6,238.5 	"/>
	<line class="st32" x1="66" y1="159.5" x2="56.9" y2="169.3"/>
	<polyline class="st32" points="104.3,38.1 109.3,43.1 109.3,50.3 106,53.5 	"/>
</g>
<linearGradient id="SVGID_32_" gradientUnits="userSpaceOnUse" x1="134.1997" y1="19.0742" x2="141.994" y2="19.0742">
	<stop  offset="0.1417" style="stop-color:#28668C"/>
	<stop  offset="1" style="stop-color:#70CCE5"/>
</linearGradient>
<path class="st33" d="M142,19.1c0,2.3-1.7,4.2-3.9,4.2c-2.2,0-3.9-1.9-3.9-4.2s1.7-4.2,3.9-4.2C140.2,14.9,142,16.8,142,19.1z"/>
<linearGradient id="SVGID_33_" gradientUnits="userSpaceOnUse" x1="159.3163" y1="32.4775" x2="167.1105" y2="32.4775">
	<stop  offset="0.1417" style="stop-color:#28668C"/>
	<stop  offset="1" style="stop-color:#70CCE5"/>
</linearGradient>
<path class="st34" d="M167.1,32.5c0,2.3-1.7,4.2-3.9,4.2s-3.9-1.9-3.9-4.2c0-2.3,1.7-4.2,3.9-4.2S167.1,30.2,167.1,32.5z"/>
<linearGradient id="SVGID_34_" gradientUnits="userSpaceOnUse" x1="153.9601" y1="62.0158" x2="161.7543" y2="62.0158">
	<stop  offset="0.1417" style="stop-color:#28668C"/>
	<stop  offset="1" style="stop-color:#70CCE5"/>
</linearGradient>
<ellipse class="st35" cx="157.9" cy="62" rx="3.9" ry="4.2"/>
<linearGradient id="SVGID_35_" gradientUnits="userSpaceOnUse" x1="130.1337" y1="65.9937" x2="137.928" y2="65.9937">
	<stop  offset="0.1417" style="stop-color:#28668C"/>
	<stop  offset="1" style="stop-color:#70CCE5"/>
</linearGradient>
<path class="st36" d="M137.9,66c0,2.3-1.7,4.2-3.9,4.2c-2.2,0-3.9-1.9-3.9-4.2c0-2.3,1.7-4.2,3.9-4.2
	C136.2,61.8,137.9,63.7,137.9,66z"/>
<linearGradient id="SVGID_36_" gradientUnits="userSpaceOnUse" x1="156.422" y1="84.2322" x2="164.2162" y2="84.2322">
	<stop  offset="0.1417" style="stop-color:#28668C"/>
	<stop  offset="1" style="stop-color:#70CCE5"/>
</linearGradient>
<path class="st37" d="M164.2,84.2c0,2.3-1.7,4.2-3.9,4.2s-3.9-1.9-3.9-4.2c0-2.3,1.7-4.2,3.9-4.2S164.2,81.9,164.2,84.2z"/>
<linearGradient id="SVGID_37_" gradientUnits="userSpaceOnUse" x1="166.7728" y1="96.348" x2="174.567" y2="96.348">
	<stop  offset="0.1417" style="stop-color:#28668C"/>
	<stop  offset="1" style="stop-color:#70CCE5"/>
</linearGradient>
<path class="st38" d="M174.6,96.3c0,2.3-1.7,4.2-3.9,4.2s-3.9-1.9-3.9-4.2c0-2.3,1.7-4.2,3.9-4.2S174.6,94,174.6,96.3z"/>
<linearGradient id="SVGID_38_" gradientUnits="userSpaceOnUse" x1="160.3191" y1="107.2091" x2="168.1134" y2="107.2091">
	<stop  offset="0.1417" style="stop-color:#28668C"/>
	<stop  offset="1" style="stop-color:#70CCE5"/>
</linearGradient>
<path class="st39" d="M168.1,107.2c0,2.3-1.7,4.2-3.9,4.2c-2.2,0-3.9-1.9-3.9-4.2s1.7-4.2,3.9-4.2
	C166.4,103,168.1,104.9,168.1,107.2z"/>
<linearGradient id="SVGID_39_" gradientUnits="userSpaceOnUse" x1="150.3964" y1="103.0206" x2="158.1906" y2="103.0206">
	<stop  offset="0.1417" style="stop-color:#28668C"/>
	<stop  offset="1" style="stop-color:#70CCE5"/>
</linearGradient>
<path class="st40" d="M158.2,103c0,2.3-1.7,4.2-3.9,4.2s-3.9-1.9-3.9-4.2c0-2.3,1.7-4.2,3.9-4.2S158.2,100.7,158.2,103z"/>
<linearGradient id="SVGID_40_" gradientUnits="userSpaceOnUse" x1="134.8007" y1="125.2533" x2="142.595" y2="125.2533">
	<stop  offset="0.1417" style="stop-color:#28668C"/>
	<stop  offset="1" style="stop-color:#70CCE5"/>
</linearGradient>
<path class="st41" d="M142.6,125.3c0,2.3-1.7,4.2-3.9,4.2c-2.2,0-3.9-1.9-3.9-4.2c0-2.3,1.7-4.2,3.9-4.2
	C140.9,121.1,142.6,122.9,142.6,125.3z"/>
<linearGradient id="SVGID_41_" gradientUnits="userSpaceOnUse" x1="183.9057" y1="57.4778" x2="191.7" y2="57.4778">
	<stop  offset="0.1417" style="stop-color:#28668C"/>
	<stop  offset="1" style="stop-color:#70CCE5"/>
</linearGradient>
<path class="st42" d="M191.7,57.5c0,2.3-1.7,4.2-3.9,4.2c-2.2,0-3.9-1.9-3.9-4.2c0-2.3,1.7-4.2,3.9-4.2
	C190,53.3,191.7,55.2,191.7,57.5z"/>
<linearGradient id="SVGID_42_" gradientUnits="userSpaceOnUse" x1="177.5651" y1="80.0437" x2="185.3593" y2="80.0437">
	<stop  offset="0.1417" style="stop-color:#28668C"/>
	<stop  offset="1" style="stop-color:#70CCE5"/>
</linearGradient>
<path class="st43" d="M185.4,80c0,2.3-1.7,4.2-3.9,4.2s-3.9-1.9-3.9-4.2c0-2.3,1.7-4.2,3.9-4.2S185.4,77.7,185.4,80z"/>
<linearGradient id="SVGID_43_" gradientUnits="userSpaceOnUse" x1="176.8145" y1="121.0647" x2="184.6088" y2="121.0647">
	<stop  offset="0.1417" style="stop-color:#28668C"/>
	<stop  offset="1" style="stop-color:#70CCE5"/>
</linearGradient>
<path class="st44" d="M184.6,121.1c0,2.3-1.7,4.2-3.9,4.2c-2.2,0-3.9-1.9-3.9-4.2s1.7-4.2,3.9-4.2
	C182.9,116.9,184.6,118.8,184.6,121.1z"/>
<linearGradient id="SVGID_44_" gradientUnits="userSpaceOnUse" x1="155.9781" y1="165.4398" x2="163.7723" y2="165.4398">
	<stop  offset="0.1417" style="stop-color:#28668C"/>
	<stop  offset="1" style="stop-color:#70CCE5"/>
</linearGradient>
<path class="st45" d="M163.8,165.4c0,2.3-1.7,4.2-3.9,4.2c-2.2,0-3.9-1.9-3.9-4.2c0-2.3,1.7-4.2,3.9-4.2
	C162,161.3,163.8,163.1,163.8,165.4z"/>
<linearGradient id="SVGID_45_" gradientUnits="userSpaceOnUse" x1="174.5878" y1="165.4398" x2="182.3821" y2="165.4398">
	<stop  offset="0.1417" style="stop-color:#28668C"/>
	<stop  offset="1" style="stop-color:#70CCE5"/>
</linearGradient>
<path class="st46" d="M182.4,165.4c0,2.3-1.7,4.2-3.9,4.2c-2.2,0-3.9-1.9-3.9-4.2c0-2.3,1.7-4.2,3.9-4.2
	C180.6,161.3,182.4,163.1,182.4,165.4z"/>
<linearGradient id="SVGID_46_" gradientUnits="userSpaceOnUse" x1="197.5564" y1="138.251" x2="205.3506" y2="138.251">
	<stop  offset="0.1417" style="stop-color:#28668C"/>
	<stop  offset="1" style="stop-color:#70CCE5"/>
</linearGradient>
<path class="st47" d="M205.4,138.3c0,2.3-1.7,4.2-3.9,4.2s-3.9-1.9-3.9-4.2c0-2.3,1.7-4.2,3.9-4.2S205.4,135.9,205.4,138.3z"/>
<linearGradient id="SVGID_47_" gradientUnits="userSpaceOnUse" x1="206.0174" y1="145.8726" x2="213.8117" y2="145.8726">
	<stop  offset="0.1417" style="stop-color:#28668C"/>
	<stop  offset="1" style="stop-color:#70CCE5"/>
</linearGradient>
<path class="st48" d="M213.8,145.9c0,2.3-1.7,4.2-3.9,4.2c-2.2,0-3.9-1.9-3.9-4.2c0-2.3,1.7-4.2,3.9-4.2
	C212.1,141.7,213.8,143.6,213.8,145.9z"/>
<linearGradient id="SVGID_48_" gradientUnits="userSpaceOnUse" x1="217.7908" y1="152.901" x2="225.585" y2="152.901">
	<stop  offset="0.1417" style="stop-color:#28668C"/>
	<stop  offset="1" style="stop-color:#70CCE5"/>
</linearGradient>
<path class="st49" d="M225.6,152.9c0,2.3-1.7,4.2-3.9,4.2s-3.9-1.9-3.9-4.2c0-2.3,1.7-4.2,3.9-4.2S225.6,150.6,225.6,152.9z"/>
<linearGradient id="SVGID_49_" gradientUnits="userSpaceOnUse" x1="211.0382" y1="194.4745" x2="218.8324" y2="194.4745">
	<stop  offset="0.1417" style="stop-color:#28668C"/>
	<stop  offset="1" style="stop-color:#70CCE5"/>
</linearGradient>
<ellipse class="st50" cx="214.9" cy="194.5" rx="3.9" ry="4.2"/>
<linearGradient id="SVGID_50_" gradientUnits="userSpaceOnUse" x1="193.1508" y1="199.3386" x2="200.9451" y2="199.3386">
	<stop  offset="0.1417" style="stop-color:#28668C"/>
	<stop  offset="1" style="stop-color:#70CCE5"/>
</linearGradient>
<path class="st51" d="M200.9,199.3c0,2.3-1.7,4.2-3.9,4.2c-2.2,0-3.9-1.9-3.9-4.2c0-2.3,1.7-4.2,3.9-4.2
	C199.2,195.2,200.9,197,200.9,199.3z"/>
<linearGradient id="SVGID_51_" gradientUnits="userSpaceOnUse" x1="160.4538" y1="187.0389" x2="168.248" y2="187.0389">
	<stop  offset="0.1417" style="stop-color:#28668C"/>
	<stop  offset="1" style="stop-color:#70CCE5"/>
</linearGradient>
<path class="st52" d="M168.2,187c0,2.3-1.7,4.2-3.9,4.2s-3.9-1.9-3.9-4.2c0-2.3,1.7-4.2,3.9-4.2S168.2,184.7,168.2,187z"/>
<linearGradient id="SVGID_52_" gradientUnits="userSpaceOnUse" x1="187.5724" y1="150.8897" x2="195.3667" y2="150.8897">
	<stop  offset="0.1417" style="stop-color:#28668C"/>
	<stop  offset="1" style="stop-color:#70CCE5"/>
</linearGradient>
<path class="st53" d="M195.4,150.9c0,2.3-1.7,4.2-3.9,4.2c-2.2,0-3.9-1.9-3.9-4.2c0-2.3,1.7-4.2,3.9-4.2
	C193.6,146.7,195.4,148.6,195.4,150.9z"/>
<linearGradient id="SVGID_53_" gradientUnits="userSpaceOnUse" x1="140.68" y1="155.5983" x2="148.4742" y2="155.5983">
	<stop  offset="0.1417" style="stop-color:#28668C"/>
	<stop  offset="1" style="stop-color:#70CCE5"/>
</linearGradient>
<path class="st54" d="M148.5,155.6c0,2.3-1.7,4.2-3.9,4.2s-3.9-1.9-3.9-4.2c0-2.3,1.7-4.2,3.9-4.2S148.5,153.3,148.5,155.6z"/>
<linearGradient id="SVGID_54_" gradientUnits="userSpaceOnUse" x1="133.246" y1="168.2036" x2="141.0402" y2="168.2036">
	<stop  offset="0.1417" style="stop-color:#28668C"/>
	<stop  offset="1" style="stop-color:#70CCE5"/>
</linearGradient>
<path class="st55" d="M141,168.2c0,2.3-1.7,4.2-3.9,4.2s-3.9-1.9-3.9-4.2c0-2.3,1.7-4.2,3.9-4.2S141,165.9,141,168.2z"/>
<linearGradient id="SVGID_55_" gradientUnits="userSpaceOnUse" x1="128.8032" y1="192.0975" x2="136.5974" y2="192.0975">
	<stop  offset="0.1417" style="stop-color:#28668C"/>
	<stop  offset="1" style="stop-color:#70CCE5"/>
</linearGradient>
<path class="st56" d="M136.6,192.1c0,2.3-1.7,4.2-3.9,4.2c-2.2,0-3.9-1.9-3.9-4.2c0-2.3,1.7-4.2,3.9-4.2
	C134.9,187.9,136.6,189.8,136.6,192.1z"/>
<linearGradient id="SVGID_56_" gradientUnits="userSpaceOnUse" x1="132.7003" y1="216.0558" x2="140.4946" y2="216.0558">
	<stop  offset="0.1417" style="stop-color:#28668C"/>
	<stop  offset="1" style="stop-color:#70CCE5"/>
</linearGradient>
<path class="st57" d="M140.5,216.1c0,2.3-1.7,4.2-3.9,4.2c-2.2,0-3.9-1.9-3.9-4.2c0-2.3,1.7-4.2,3.9-4.2
	C138.7,211.9,140.5,213.7,140.5,216.1z"/>
<linearGradient id="SVGID_57_" gradientUnits="userSpaceOnUse" x1="155.882" y1="199.3386" x2="163.6762" y2="199.3386">
	<stop  offset="0.1417" style="stop-color:#28668C"/>
	<stop  offset="1" style="stop-color:#70CCE5"/>
</linearGradient>
<path class="st58" d="M163.7,199.3c0,2.3-1.7,4.2-3.9,4.2c-2.2,0-3.9-1.9-3.9-4.2c0-2.3,1.7-4.2,3.9-4.2
	C161.9,195.2,163.7,197,163.7,199.3z"/>
<linearGradient id="SVGID_58_" gradientUnits="userSpaceOnUse" x1="166.306" y1="210.7667" x2="174.1003" y2="210.7667">
	<stop  offset="0.1417" style="stop-color:#28668C"/>
	<stop  offset="1" style="stop-color:#70CCE5"/>
</linearGradient>
<path class="st59" d="M174.1,210.8c0,2.3-1.7,4.2-3.9,4.2c-2.2,0-3.9-1.9-3.9-4.2c0-2.3,1.7-4.2,3.9-4.2
	C172.4,206.6,174.1,208.5,174.1,210.8z"/>
<linearGradient id="SVGID_59_" gradientUnits="userSpaceOnUse" x1="124.8894" y1="246.5962" x2="132.6837" y2="246.5962">
	<stop  offset="0.1417" style="stop-color:#28668C"/>
	<stop  offset="1" style="stop-color:#70CCE5"/>
</linearGradient>
<path class="st60" d="M132.7,246.6c0,2.3-1.7,4.2-3.9,4.2c-2.2,0-3.9-1.9-3.9-4.2c0-2.3,1.7-4.2,3.9-4.2
	C130.9,242.4,132.7,244.3,132.7,246.6z"/>
<linearGradient id="SVGID_60_" gradientUnits="userSpaceOnUse" x1="130.0377" y1="274.84" x2="137.8319" y2="274.84">
	<stop  offset="0.1417" style="stop-color:#28668C"/>
	<stop  offset="1" style="stop-color:#70CCE5"/>
</linearGradient>
<path class="st61" d="M137.8,274.8c0,2.3-1.7,4.2-3.9,4.2c-2.2,0-3.9-1.9-3.9-4.2c0-2.3,1.7-4.2,3.9-4.2
	C136.1,270.7,137.8,272.5,137.8,274.8z"/>
<linearGradient id="SVGID_61_" gradientUnits="userSpaceOnUse" x1="139.9179" y1="264.9229" x2="147.7121" y2="264.9229">
	<stop  offset="0.1417" style="stop-color:#28668C"/>
	<stop  offset="1" style="stop-color:#70CCE5"/>
</linearGradient>
<path class="st62" d="M147.7,264.9c0,2.3-1.7,4.2-3.9,4.2s-3.9-1.9-3.9-4.2c0-2.3,1.7-4.2,3.9-4.2S147.7,262.6,147.7,264.9z"/>
<linearGradient id="SVGID_62_" gradientUnits="userSpaceOnUse" x1="134.8685" y1="282.7286" x2="142.6627" y2="282.7286">
	<stop  offset="0.1417" style="stop-color:#28668C"/>
	<stop  offset="1" style="stop-color:#70CCE5"/>
</linearGradient>
<ellipse class="st63" cx="138.8" cy="282.7" rx="3.9" ry="4.2"/>
<linearGradient id="SVGID_63_" gradientUnits="userSpaceOnUse" x1="155.882" y1="254.9733" x2="163.6762" y2="254.9733">
	<stop  offset="0.1417" style="stop-color:#28668C"/>
	<stop  offset="1" style="stop-color:#70CCE5"/>
</linearGradient>
<path class="st64" d="M163.7,255c0,2.3-1.7,4.2-3.9,4.2c-2.2,0-3.9-1.9-3.9-4.2c0-2.3,1.7-4.2,3.9-4.2
	C161.9,250.8,163.7,252.7,163.7,255z"/>
<linearGradient id="SVGID_64_" gradientUnits="userSpaceOnUse" x1="156.7681" y1="235.9848" x2="164.5624" y2="235.9848">
	<stop  offset="0.1417" style="stop-color:#28668C"/>
	<stop  offset="1" style="stop-color:#70CCE5"/>
</linearGradient>
<path class="st65" d="M164.6,236c0,2.3-1.7,4.2-3.9,4.2c-2.2,0-3.9-1.9-3.9-4.2c0-2.3,1.7-4.2,3.9-4.2
	C162.8,231.8,164.6,233.7,164.6,236z"/>
<linearGradient id="SVGID_65_" gradientUnits="userSpaceOnUse" x1="182.6877" y1="222.9488" x2="190.4819" y2="222.9488">
	<stop  offset="0.1417" style="stop-color:#28668C"/>
	<stop  offset="1" style="stop-color:#70CCE5"/>
</linearGradient>
<path class="st66" d="M190.5,222.9c0,2.3-1.7,4.2-3.9,4.2s-3.9-1.9-3.9-4.2c0-2.3,1.7-4.2,3.9-4.2S190.5,220.6,190.5,222.9z"/>
<linearGradient id="SVGID_66_" gradientUnits="userSpaceOnUse" x1="192.3245" y1="237.6372" x2="200.1187" y2="237.6372">
	<stop  offset="0.1417" style="stop-color:#28668C"/>
	<stop  offset="1" style="stop-color:#70CCE5"/>
</linearGradient>
<path class="st67" d="M200.1,237.6c0,2.3-1.7,4.2-3.9,4.2c-2.2,0-3.9-1.9-3.9-4.2c0-2.3,1.7-4.2,3.9-4.2
	C198.4,233.4,200.1,235.3,200.1,237.6z"/>
</svg>
