<?xml version="1.0" encoding="utf-8"?>
<!-- Generator: Adobe Illustrator 23.0.1, SVG Export Plug-In . SVG Version: 6.00 Build 0)  -->
<svg version="1.1" id="Слой_1" xmlns="http://www.w3.org/2000/svg" xmlns:xlink="http://www.w3.org/1999/xlink" x="0px" y="0px"
	 viewBox="0 0 354.4 362.97" style="enable-background:new 0 0 354.4 362.97;" xml:space="preserve">
<style type="text/css">
	.st0{fill:none;}
	.st1{font-family:'MyriadPro-Bold';}
	.st2{font-size:47.7247px;}
	.st3{font-family:'HelveticaNeue-Light';}
	.st4{font-size:160.4663px;}
</style>
<g>
	<path d="M290.36,68.41v52.4l-18.06-18.06l-7.04,7.04l30.09,30.09l30.09-30.09l-7.04-7.04l-18.06,18.06v-52.4
		c0-17.4-14.15-31.55-31.55-31.55h-26.57v9.96h26.57C280.67,46.83,290.36,56.51,290.36,68.41L290.36,68.41z M290.36,68.41"/>
	<path d="M61.22,292.91v-52.4l18.06,18.06l7.04-7.05l-30.09-30.09l-30.09,30.09l7.04,7.05l18.06-18.06v52.4
		c0,17.39,14.15,31.55,31.55,31.55h26.57v-9.96H82.8C70.9,314.49,61.22,304.81,61.22,292.91L61.22,292.91z M61.22,292.91"/>
	<path class="st0" d="M175.56,206.94H158.6v112.59c0,11.16,9.08,20.24,20.24,20.24H316.2c11.16,0,20.24-9.08,20.24-20.24V185.26
		c0-11.16-9.08-20.24-20.24-20.24H204.92v12.56C204.92,193.77,191.75,206.94,175.56,206.94z"/>
	<path d="M195.8,177.58c0,11.16-9.08,20.24-20.24,20.24H158.6v9.11h16.96c16.19,0,29.36-13.17,29.36-29.36v-12.56h-9.11V177.58z"/>
	<path d="M38.2,197.95c-11.16,0-20.24-9.08-20.24-20.24V43.45c0-11.16,9.08-20.24,20.24-20.24h137.35
		c11.16,0,20.24,9.08,20.24,20.24v112.59h9.11V43.45c0-16.19-13.17-29.36-29.36-29.36H38.2c-16.19,0-29.36,13.17-29.36,29.36v134.26
		c0,16.19,13.17,29.36,29.36,29.36h111.28v-9.11H38.2z"/>
	<path d="M316.2,155.9H204.92v9.11H316.2c11.16,0,20.24,9.08,20.24,20.24v134.26c0,11.16-9.08,20.24-20.24,20.24H178.84
		c-11.16,0-20.24-9.08-20.24-20.24V206.94h-9.11v112.59c0,16.19,13.17,29.36,29.36,29.36H316.2c16.19,0,29.36-13.17,29.36-29.36
		V185.26C345.55,169.07,332.38,155.9,316.2,155.9z"/>
	<rect x="195.8" y="155.9" width="9.11" height="9.11"/>
	<rect x="149.49" y="197.82" width="9.11" height="9.11"/>
	<text transform="matrix(1 0 0 1 181.759 247.0069)"><tspan x="0" y="0" class="st1 st2">10110</tspan><tspan x="0" y="50.71" class="st1 st2">10010</tspan></text>
	<text transform="matrix(1 0 0 1 69.7307 163.9054)" class="st3 st4">ż</text>
</g>
</svg>
